#N canvas 827 239 527 327 12;
#X obj 214 502 tgl 25 0 empty empty empty 17 7 0 10 #191919 #e1e1e1 #e1e1e1 0 1;
#X obj 361 637 dac~;
#X obj 137 538 *~;
#X obj 137 502 osc~ 440;
#X obj 435 501 tgl 25 0 empty empty empty 17 7 0 10 #191919 #e1e1e1 #e1e1e1 0 1;
#X obj 361 538 *~;
#X obj 361 501 osc~ 220;
#X obj 666 502 tgl 25 0 empty empty empty 17 7 0 10 #191919 #e1e1e1 #e1e1e1 0 1;
#X obj 589 538 *~;
#X obj 589 502 osc~ 660;
#X obj 134 465 r mpr121_driver_ch0 @hv_param;
#X obj 361 465 r mpr121_driver_ch1 @hv_param;
#X obj 586 465 r mpr121_driver_ch2 @hv_param;
#X connect 0 0 2 1;
#X connect 2 0 1 0;
#X connect 2 0 1 1;
#X connect 3 0 2 0;
#X connect 4 0 5 1;
#X connect 5 0 1 0;
#X connect 5 0 1 1;
#X connect 6 0 5 0;
#X connect 7 0 8 1;
#X connect 8 0 1 0;
#X connect 8 0 1 1;
#X connect 9 0 8 0;
#X connect 10 0 0 0;
#X connect 11 0 4 0;
#X connect 12 0 7 0;
