#N canvas 827 239 527 327 12;
#X obj 126 119 cnv 15 316 761 empty empty adc\ Delay\ with\ extra\ feedback\ in\ from\ touchpads 20 12 0 14 #5d5d5d #e1e1e1 0;
#X obj 459 119 cnv 15 505 605 empty empty Switches\ with\ 220\ pitch\ and\ 110\ pitch\ osc 20 12 0 14 #3c3c3c #e1e1e1 0;
#X obj 984 119 cnv 15 593 605 empty empty Touch\ pads\ 4\ and\ 6\,\ osc\ pitch\ controlled\ \ by\ knobs\ 0\ and\ 5 20 12 0 14 #3c3c3c #e1e1e1 0;
#X obj 1285 194 cnv 15 275 296 empty empty empty 20 12 0 14 #878787 #e1e1e1 0;
#X obj 1000 194 cnv 15 275 296 empty empty empty 20 12 0 14 #878787 #e1e1e1 0;
#X obj 717 194 cnv 15 237 296 empty empty empty 20 12 0 14 #696969 #e1e1e1 0;
#X obj 472 194 cnv 15 237 296 empty empty empty 20 12 0 14 #696969 #e1e1e1 0;
#X obj 493 205 r toggle1left @hv_param;
#X obj 538 233 r toggle1right @hv_param;
#X obj 738 205 r toggle2up @hv_param;
#X obj 776 233 r toggle2down @hv_param;
#X obj 472 939 dac~;
#X obj 493 382 *~ 0.5;
#X obj 479 463 *~;
#X obj 479 429 osc~ 220;
#X obj 493 358 line~;
#X msg 493 263 1;
#X msg 539 263 0;
#X obj 493 300 t \$1 \$2;
#X msg 493 328 \$1 500;
#X msg 555 328 \$1 500;
#X obj 737 382 *~ 0.5;
#X obj 731 463 *~;
#X obj 737 358 line~;
#X obj 737 300 t \$1 \$2;
#X msg 737 328 \$1 500;
#X msg 799 328 \$1 500;
#X msg 778 263 1;
#X msg 738 263 0;
#X obj 731 429 osc~ 110;
#X obj 622 516 +~;
#X obj 1029 382 *~ 0.5;
#X obj 1029 263 change;
#X obj 1029 358 line~;
#X obj 1029 300 sel 0 1;
#X msg 1080 328 1 20;
#X msg 1029 328 0 10;
#X msg 1029 233 \$1 20;
#X obj 1021 465 *~;
#X obj 555 691 *~;
#X msg 622 586 \$1 20;
#X obj 622 614 line~, f 7;
#X obj 622 642 *~ 0.5;
#X obj 622 559 r faderleft @hv_param;
#X obj 1029 205 r mpr121_driver_ch6 @hv_param;
#X msg 1148 586 \$1 20;
#X obj 1148 614 line~, f 7;
#X obj 1148 642 *~ 0.5;
#X obj 1036 691 *~;
#X obj 1148 559 r faderright @hv_param;
#X msg 1136 328 \$1 20;
#X obj 1136 400 * 440;
#X obj 1136 300 r knob5 @hv_param;
#X obj 1136 429 osc~ 440;
#X obj 1136 358 line;
#X obj 1315 382 *~ 0.5;
#X obj 1315 265 change;
#X obj 1315 358 line~;
#X obj 1315 300 sel 0 1;
#X msg 1366 328 1 20;
#X msg 1315 328 0 10;
#X msg 1315 235 \$1 20;
#X obj 1307 467 *~;
#X msg 1422 328 \$1 20;
#X obj 1422 400 * 440;
#X obj 1422 429 osc~ 440;
#X obj 1422 358 line;
#X obj 1422 300 r knob0 @hv_param;
#X obj 1315 207 r mpr121_driver_ch4 @hv_param;
#X obj 1148 516 +~;
#X obj 135 205 adc~;
#X obj 135 697 *~;
#X obj 220 771 + 1;
#X obj 220 745 * -1;
#X obj 135 850 +~;
#X obj 166 794 *~;
#X obj 164 529 line~;
#X obj 301 620 s~ feedback;
#X obj 301 594 *~;
#X obj 193 256 +~;
#X obj 204 218 r~ feedback;
#X obj 164 473 t f 5;
#X obj 164 501 pack f f;
#X obj 220 691 r knob3 @hv_param;
#X text 135 170 from petal_test;
#X obj 164 418 r knob1 @hv_param;
#X obj 193 309 delwrite~ delay1 5000;
#X obj 300 502 r knob2 @hv_param;
#X msg 300 528 \$1 20;
#X obj 300 557 line~, f 7;
#X obj 164 445 * 4999;
#X msg 278 722 \$1 20, f 7;
#X obj 278 752 line, f 7;
#X obj 313 218 r~ touchfeedback;
#X obj 1321 678 s~ touchfeedback;
#X obj 302 263 +~;
#X obj 1321 651 *~;
#X msg 1320 583 \$1 20;
#X obj 1320 612 line~, f 7;
#X obj 1320 557 r knob4 @hv_param;
#X obj 164 557 delread4~ delay1;
#X connect 7 0 16 0;
#X connect 8 0 17 0;
#X connect 9 0 28 0;
#X connect 10 0 27 0;
#X connect 12 0 13 1;
#X connect 13 0 30 0;
#X connect 14 0 13 0;
#X connect 15 0 12 0;
#X connect 16 0 18 0;
#X connect 17 0 18 0;
#X connect 18 0 19 0;
#X connect 18 1 20 0;
#X connect 19 0 15 0;
#X connect 20 0 15 0;
#X connect 21 0 22 1;
#X connect 22 0 30 1;
#X connect 23 0 21 0;
#X connect 24 0 25 0;
#X connect 24 1 26 0;
#X connect 25 0 23 0;
#X connect 26 0 23 0;
#X connect 27 0 24 0;
#X connect 28 0 24 0;
#X connect 29 0 22 0;
#X connect 30 0 39 0;
#X connect 31 0 38 1;
#X connect 32 0 34 0;
#X connect 33 0 31 0;
#X connect 34 0 36 0;
#X connect 34 1 35 0;
#X connect 35 0 33 0;
#X connect 36 0 33 0;
#X connect 37 0 32 0;
#X connect 38 0 69 0;
#X connect 39 0 11 0;
#X connect 39 0 11 1;
#X connect 40 0 41 0;
#X connect 41 0 42 0;
#X connect 42 0 39 1;
#X connect 43 0 40 0;
#X connect 44 0 37 0;
#X connect 45 0 46 0;
#X connect 46 0 47 0;
#X connect 47 0 48 1;
#X connect 48 0 11 0;
#X connect 48 0 11 1;
#X connect 48 0 96 0;
#X connect 49 0 45 0;
#X connect 50 0 54 0;
#X connect 51 0 53 0;
#X connect 52 0 50 0;
#X connect 53 0 38 0;
#X connect 54 0 51 0;
#X connect 55 0 62 1;
#X connect 56 0 58 0;
#X connect 57 0 55 0;
#X connect 58 0 60 0;
#X connect 58 1 59 0;
#X connect 59 0 57 0;
#X connect 60 0 57 0;
#X connect 61 0 56 0;
#X connect 62 0 69 1;
#X connect 63 0 66 0;
#X connect 64 0 65 0;
#X connect 65 0 62 0;
#X connect 66 0 64 0;
#X connect 67 0 63 0;
#X connect 68 0 61 0;
#X connect 69 0 48 0;
#X connect 70 0 71 0;
#X connect 70 0 79 0;
#X connect 71 0 74 0;
#X connect 72 0 71 1;
#X connect 73 0 72 0;
#X connect 74 0 11 0;
#X connect 74 0 11 1;
#X connect 75 0 74 1;
#X connect 76 0 100 0;
#X connect 78 0 77 0;
#X connect 79 0 95 0;
#X connect 80 0 79 1;
#X connect 81 0 82 0;
#X connect 81 1 82 1;
#X connect 82 0 76 0;
#X connect 83 0 91 0;
#X connect 85 0 90 0;
#X connect 87 0 88 0;
#X connect 88 0 89 0;
#X connect 89 0 78 1;
#X connect 90 0 81 0;
#X connect 91 0 92 0;
#X connect 92 0 73 0;
#X connect 92 0 75 1;
#X connect 93 0 95 1;
#X connect 95 0 86 0;
#X connect 96 0 94 0;
#X connect 97 0 98 0;
#X connect 98 0 96 1;
#X connect 99 0 97 0;
#X connect 100 0 75 0;
#X connect 100 0 78 0;
