#N canvas 827 239 527 327 12;
#X obj 1177 1426 r mpr121_driver_ch8 @hv_param;
#X msg 1238 1564 1 300;
#X obj 1177 1599 line~;
#X obj 1079 1589 osc~ 440;
#X obj 1079 1662 *~;
#X obj 1079 1699 dac~;
#X obj 1099 1625 *~ 0.5;
#X msg 1177 1564 0 300;
#X floatatom 1433 2236 5 0 0 0 - - - 0;
#X obj 1177 1495 change;
#X obj 1177 1530 sel 0 1;
#X obj 1177 1460 tgl 21 0 empty empty empty 17 7 0 10 #191919 #e1e1e1 #e1e1e1 0 1;
#X connect 0 0 11 0;
#X connect 1 0 2 0;
#X connect 2 0 6 0;
#X connect 3 0 4 0;
#X connect 4 0 5 0;
#X connect 4 0 5 1;
#X connect 6 0 4 1;
#X connect 7 0 2 0;
#X connect 9 0 10 0;
#X connect 10 0 7 0;
#X connect 10 1 1 0;
#X connect 11 0 9 0;
