#N canvas 827 239 527 327 12;
#X obj 732 83 cnv 15 1697 1220 empty empty OSC~\ Synth 20 12 0 14 #878787 #000000 0;
#X obj 1210 120 cnv 15 1209 939 empty empty OSC~\ Aeolean\ scale 20 12 0 14 #3c3c3c #e1e1e1 0;
#X obj 1939 660 cnv 15 229 267 empty empty empty 20 12 0 14 #878787 #e1e1e1 0;
#X obj 1707 143 cnv 15 227 220 empty empty Pitch\ distributed\ to\ aeolean\ scale 20 12 0 14 #878787 #191919 0;
#X obj 752 121 cnv 15 446 942 empty empty Switches\ drone\ 1\ and\ 2\ octaves\ below\ main\ pitch\ (knob\ 5) 20 12 0 14 #3c3c3c #e1e1e1 0;
#X obj 763 180 cnv 15 426 295 empty empty Noise\ active\ when\ drones\ are\ on.\ Can\ be\ toggles\ with\ touchpads\ 0\ and\ 2 6 12 0 14 #878787 #000000 0;
#X obj 975 551 cnv 15 214 296 empty empty empty 20 12 0 14 #696969 #e1e1e1 0;
#X obj 763 551 cnv 15 204 296 empty empty empty 20 12 0 14 #696969 #e1e1e1 0;
#X obj 769 562 r toggle1left @hv_param;
#X obj 798 590 r toggle1right @hv_param;
#X obj 982 562 r toggle2up @hv_param;
#X obj 1008 590 r toggle2down @hv_param;
#X obj 769 747 *~ 0.5;
#X obj 896 804 *~;
#X obj 769 717 line~;
#X obj 981 747 *~ 0.5;
#X obj 1115 804 *~;
#X obj 981 717 line~;
#X obj 955 867 +~;
#X obj 990 1250 *~;
#X msg 1134 1158 \$1 20;
#X obj 1134 1186 line~, f 7;
#X obj 1295 1243 *~;
#X obj 1134 1131 r faderright @hv_param;
#X obj 1421 1252 s~ touchfeedback;
#X obj 1421 1225 *~;
#X msg 1420 1157 \$1 20;
#X obj 1420 1186 line~, f 7;
#X obj 1420 1131 r knob4 @hv_param;
#X obj 122 494 cnv 15 449 777 empty empty stereo\ delay 20 12 0 14 #5d5d5d #e1e1e1 0;
#X obj 337 33 adc~;
#X obj 397 1179 *~;
#X obj 412 1235 +~;
#X obj 443 1179 *~;
#X obj 440 943 *~;
#X obj 412 624 +~;
#X obj 288 985 r knob3 @hv_param;
#X obj 288 724 r knob1 @hv_param;
#X obj 288 819 r knob2 @hv_param;
#X msg 288 845 \$1 20;
#X obj 288 874 line~, f 7;
#X msg 288 1012 \$1 20, f 7;
#X obj 412 889 delread4~ delay1;
#X obj 440 979 s~ feedback_l;
#X obj 409 580 r~ feedback_r;
#X obj 134 624 +~;
#X obj 134 580 r~ feedback_l;
#X obj 134 1187 *~;
#X obj 157 1243 +~;
#X obj 200 1187 *~;
#X obj 134 889 delread4~ delay2;
#X obj 169 943 *~;
#X obj 169 979 s~ feedback_r;
#X obj 134 673 delwrite~ delay2 5000;
#X obj 412 673 delwrite~ delay1 4000;
#X text 142 510 from petal_test >> made into stereo fx;
#X obj 288 1042 line~, f 7;
#X obj 288 1092 *~ -1;
#X obj 288 1118 +~ 1;
#X obj 169 838 line~;
#X obj 169 782 t f 5;
#X obj 169 810 pack f f;
#X obj 169 754 * 4999;
#X obj 440 839 line~;
#X obj 440 783 t f 5;
#X obj 440 811 pack f f;
#X obj 440 755 * 3999;
#X obj 409 536 r~ touchfeedback;
#X obj 470 624 +~;
#X obj 188 624 +~;
#X obj 122 83 cnv 15 482 397 empty empty The\ top\ TOUCH\ 10\ and\ 11\ Touchpads\ discouple\ adc\ from\ the\ delay\ input 20 12 0 14 #696969 #e1e1e1 0;
#X obj 146 407 *~;
#X obj 218 407 *~;
#X obj 178 323 line~;
#X msg 178 296 \$1 500;
#X obj 132 131 r mpr121_driver_ch10 @hv_param;
#X obj 251 164 r mpr121_driver_ch11 @hv_param;
#X obj 132 162 change;
#X obj 251 195 change;
#X msg 134 229 0;
#X msg 253 262 1;
#X obj 132 194 sel 1;
#X obj 251 227 sel 1;
#X msg 1731 199 \$1 20;
#X obj 1731 168 r knob5 @hv_param;
#X obj 1731 231 line~;
#X obj 1731 327 s~ pitch;
#X obj 1953 816 *~ 0.5;
#X obj 1953 697 change;
#X obj 1953 792 line~;
#X obj 1953 734 sel 0 1;
#X obj 1953 874 *~;
#X obj 2088 849 osc~;
#X obj 2088 801 mtof~;
#X obj 2088 716 r~ pitch;
#X msg 1953 762 0 500;
#X msg 2004 762 1 10;
#X obj 1953 671 r mpr121_driver_ch9 @hv_param;
#X obj 1225 361 cnv 15 229 267 empty empty empty 20 12 0 14 #878787 #e1e1e1 0;
#X obj 1244 515 *~ 0.5;
#X obj 1244 396 change;
#X obj 1244 491 line~;
#X obj 1244 433 sel 0 1;
#X obj 1233 573 *~;
#X obj 1379 548 osc~;
#X obj 1379 415 r~ pitch;
#X msg 1244 461 0 500;
#X msg 1295 461 1 10;
#X obj 1244 370 r mpr121_driver_ch3 @hv_param;
#X obj 1687 1023 clip~ -1 1;
#X obj 1731 295 ftom~;
#X obj 1379 500 mtof~;
#X obj 1710 406 cnv 15 215 462 empty empty empty 20 12 0 14 #878787 #e1e1e1 0;
#X obj 1719 569 *~ 0.5;
#X obj 1719 450 change;
#X obj 1719 545 line~;
#X obj 1719 487 sel 0 1;
#X obj 1727 624 *~;
#X obj 1825 602 osc~;
#X msg 1719 515 0 500;
#X msg 1770 515 1 20;
#X obj 1825 554 mtof~;
#X obj 1825 469 r~ pitch;
#X obj 1719 424 r mpr121_driver_ch5 @hv_param;
#X obj 1825 521 +~ 3;
#X obj 2088 776 +~ 10;
#X obj 1233 600 *~ 0.4, f 10;
#X obj 1727 654 *~ 0.4;
#X obj 1953 901 *~ 0.4, f 9;
#X obj 1731 263 *~ 440;
#X obj 1115 694 mtof~;
#X obj 1115 634 r~ pitch;
#X obj 896 694 mtof~;
#X obj 896 634 r~ pitch;
#X obj 1115 664 -~ 12.2;
#X obj 896 664 -~ 23.88;
#X obj 896 722 osc~;
#X obj 1115 722 osc~;
#X obj 1115 769 +~;
#X obj 786 206 noise~, f 8;
#X obj 896 769 +~;
#X obj 848 408 line~, f 7;
#X obj 848 281 change, f 9;
#X obj 944 281 change, f 9;
#X msg 849 346 0, f 4;
#X obj 848 313 sel 1, f 6;
#X obj 944 313 sel 1, f 6;
#X obj 848 207 r mpr121_driver_ch0 @hv_param, f 30;
#X obj 944 244 r mpr121_driver_ch2 @hv_param, f 30;
#X msg 848 381 \$1 1000, f 9;
#X msg 1058 913 \$1 20;
#X obj 1058 891 r knob0 @hv_param;
#X obj 1058 942 line~;
#X obj 955 1003 *~;
#X obj 1058 976 *~ 1.5;
#X obj 786 244 *~ 0.2, f 8;
#X text 1058 866 Drone Volume;
#X text 1133 1100 Volume for all osc~ in this block;
#X text 1422 1100 How much audio from osc~gets sent to the delay;
#X text 1547 1205 Turn completely down to be able to keep playing without going into the loop, f 23;
#X text 1225 148 Pad 4 5 6 7 8 9 switch 1 switch 2 Semitones +0 +1 +3 +5 +6 +8 - 12 - 24, f 32;
#X text 326 702 Time;
#X text 301 963 Delay volume;
#X msg 443 347 \$1 20;
#X obj 443 375 line~, f 7;
#X obj 443 403 *~ 0.5;
#X obj 443 320 r faderleft @hv_param;
#X obj 443 441 *~;
#X obj 490 441 *~;
#X text 443 272 Volume for the dry input signal, f 21;
#X obj 580 1020 cnv 15 143 215 empty empty empty 20 12 0 14 #696969 #e1e1e1 0;
#X obj 584 1046 +~;
#X obj 620 1277 dac~;
#X obj 584 1109 +~;
#X obj 654 1108 +~;
#X obj 584 1147 clip~ -1 1;
#X obj 654 1146 clip~ -1 1;
#X obj 584 1197 +~;
#X obj 654 1197 +~;
#X text 409 513 Feedback from osc~;
#X text 2087 1115 To do: tweak noise level \, add movement to drones, f 23;
#X msg 831 687 1 1000;
#X msg 769 687 0 1000;
#X obj 1465 363 cnv 15 229 267 empty empty empty 20 12 0 14 #878787 #e1e1e1 0;
#X obj 1479 517 *~ 0.5;
#X obj 1479 398 change;
#X obj 1479 493 line~;
#X obj 1479 435 sel 0 1;
#X obj 1487 572 *~;
#X obj 1479 372 r mpr121_driver_ch4 @hv_param;
#X obj 1585 550 osc~;
#X msg 1479 463 0 500;
#X msg 1530 463 1 20;
#X obj 1585 502 mtof~;
#X obj 1585 417 r~ pitch;
#X obj 1585 477 +~ 1;
#X obj 1487 602 *~ 0.4;
#X obj 1465 663 cnv 15 229 267 empty empty empty 20 12 0 14 #878787 #e1e1e1 0;
#X obj 1479 818 *~ 0.5;
#X obj 1479 699 change;
#X obj 1479 794 line~;
#X obj 1479 736 sel 0 1;
#X obj 1468 876 *~;
#X obj 1614 851 osc~;
#X obj 1614 803 mtof~;
#X obj 1614 718 r~ pitch;
#X msg 1479 764 0 500;
#X msg 1530 764 1 10;
#X obj 1479 673 r mpr121_driver_ch8 @hv_param;
#X obj 1614 778 +~ 8;
#X obj 1468 903 *~ 0.4, f 9;
#X obj 1939 359 cnv 15 229 267 empty empty empty 20 12 0 14 #878787 #e1e1e1 0;
#X obj 1953 515 *~ 0.5;
#X obj 1953 396 change;
#X obj 1953 491 line~;
#X obj 1953 433 sel 0 1;
#X obj 1942 570 *~;
#X obj 1953 370 r mpr121_driver_ch6 @hv_param;
#X obj 2088 548 osc~;
#X obj 2088 500 mtof~;
#X obj 2088 415 r~ pitch;
#X msg 1953 461 0 500;
#X msg 2004 461 1 10;
#X obj 2088 475 +~ 5;
#X obj 1942 600 *~ 0.4, f 8;
#X obj 2180 359 cnv 15 229 267 empty empty empty 20 12 0 14 #878787 #e1e1e1 0;
#X obj 2192 515 *~ 0.5;
#X obj 2192 396 change;
#X obj 2192 491 line~;
#X obj 2192 433 sel 0 1;
#X obj 2192 570 *~;
#X obj 2327 548 osc~;
#X obj 2327 500 mtof~;
#X obj 2327 415 r~ pitch;
#X msg 2192 461 0 500;
#X msg 2243 461 1 10;
#X obj 2192 370 r mpr121_driver_ch7 @hv_param;
#X obj 2327 475 +~ 6;
#X obj 2192 600 *~ 0.4, f 10;
#X text 309 799 Feedback, f 11;
#X text 338 842 max is quasi infinite loop, f 11;
#X msg 981 687 1 1000;
#X msg 1043 687 0 1000;
#X obj 273 368 s recled @hv_param;
#X obj 786 434 *~;
#X msg 944 346 0.3, f 5;
#X msg 280 335 0;
#X msg 318 335 1;
#X text 271 392 LED: Red = recording should be off when loading - to do, f 21;
#X text 2085 1164 LED: Red = recording should be off when loading - to do, f 21;
#X obj 1134 1214 *~ 1.2;
#X connect 8 0 182 0;
#X connect 9 0 181 0;
#X connect 10 0 241 0;
#X connect 11 0 242 0;
#X connect 12 0 13 1;
#X connect 13 0 18 0;
#X connect 14 0 12 0;
#X connect 15 0 16 1;
#X connect 16 0 18 1;
#X connect 17 0 15 0;
#X connect 18 0 153 0;
#X connect 19 0 171 0;
#X connect 20 0 21 0;
#X connect 21 0 250 0;
#X connect 22 0 25 0;
#X connect 22 0 171 1;
#X connect 23 0 20 0;
#X connect 25 0 24 0;
#X connect 26 0 27 0;
#X connect 27 0 25 1;
#X connect 28 0 26 0;
#X connect 30 0 167 0;
#X connect 30 0 71 0;
#X connect 30 1 168 0;
#X connect 30 1 72 0;
#X connect 31 0 32 0;
#X connect 32 0 173 0;
#X connect 33 0 32 1;
#X connect 34 0 43 0;
#X connect 35 0 68 0;
#X connect 36 0 41 0;
#X connect 37 0 62 0;
#X connect 37 0 66 0;
#X connect 38 0 39 0;
#X connect 39 0 40 0;
#X connect 40 0 51 1;
#X connect 40 0 34 1;
#X connect 41 0 56 0;
#X connect 42 0 34 0;
#X connect 42 0 33 0;
#X connect 44 0 35 1;
#X connect 45 0 69 0;
#X connect 46 0 45 1;
#X connect 47 0 48 0;
#X connect 48 0 174 0;
#X connect 49 0 48 1;
#X connect 50 0 51 0;
#X connect 50 0 49 0;
#X connect 51 0 52 0;
#X connect 56 0 49 1;
#X connect 56 0 57 0;
#X connect 56 0 33 1;
#X connect 57 0 58 0;
#X connect 58 0 47 1;
#X connect 58 0 31 1;
#X connect 59 0 50 0;
#X connect 60 0 61 0;
#X connect 60 1 61 1;
#X connect 61 0 59 0;
#X connect 62 0 60 0;
#X connect 63 0 42 0;
#X connect 64 0 65 0;
#X connect 64 1 65 1;
#X connect 65 0 63 0;
#X connect 66 0 64 0;
#X connect 67 0 68 1;
#X connect 67 0 69 1;
#X connect 68 0 54 0;
#X connect 69 0 53 0;
#X connect 71 0 45 0;
#X connect 71 0 47 0;
#X connect 72 0 35 0;
#X connect 72 0 31 0;
#X connect 73 0 71 1;
#X connect 73 0 72 1;
#X connect 74 0 73 0;
#X connect 75 0 77 0;
#X connect 76 0 78 0;
#X connect 77 0 81 0;
#X connect 78 0 82 0;
#X connect 79 0 74 0;
#X connect 80 0 74 0;
#X connect 81 0 79 0;
#X connect 81 0 247 0;
#X connect 82 0 80 0;
#X connect 82 0 246 0;
#X connect 83 0 85 0;
#X connect 84 0 83 0;
#X connect 85 0 129 0;
#X connect 87 0 91 1;
#X connect 88 0 90 0;
#X connect 89 0 87 0;
#X connect 90 0 95 0;
#X connect 90 1 96 0;
#X connect 91 0 128 0;
#X connect 92 0 91 0;
#X connect 93 0 92 0;
#X connect 94 0 125 0;
#X connect 95 0 89 0;
#X connect 96 0 89 0;
#X connect 97 0 88 0;
#X connect 99 0 103 1;
#X connect 100 0 102 0;
#X connect 101 0 99 0;
#X connect 102 0 106 0;
#X connect 102 1 107 0;
#X connect 103 0 126 0;
#X connect 104 0 103 0;
#X connect 105 0 111 0;
#X connect 106 0 101 0;
#X connect 107 0 101 0;
#X connect 108 0 100 0;
#X connect 109 0 22 0;
#X connect 110 0 86 0;
#X connect 111 0 104 0;
#X connect 113 0 117 1;
#X connect 114 0 116 0;
#X connect 115 0 113 0;
#X connect 116 0 119 0;
#X connect 116 1 120 0;
#X connect 117 0 127 0;
#X connect 118 0 117 0;
#X connect 119 0 115 0;
#X connect 120 0 115 0;
#X connect 121 0 118 0;
#X connect 122 0 124 0;
#X connect 123 0 114 0;
#X connect 124 0 121 0;
#X connect 125 0 93 0;
#X connect 126 0 109 0;
#X connect 127 0 109 0;
#X connect 128 0 109 0;
#X connect 129 0 110 0;
#X connect 130 0 137 0;
#X connect 131 0 134 0;
#X connect 132 0 136 0;
#X connect 133 0 135 0;
#X connect 134 0 130 0;
#X connect 135 0 132 0;
#X connect 136 0 140 1;
#X connect 137 0 138 1;
#X connect 138 0 16 0;
#X connect 139 0 155 0;
#X connect 140 0 13 0;
#X connect 141 0 244 1;
#X connect 142 0 145 0;
#X connect 143 0 146 0;
#X connect 144 0 149 0;
#X connect 145 0 144 0;
#X connect 146 0 245 0;
#X connect 147 0 142 0;
#X connect 148 0 143 0;
#X connect 149 0 141 0;
#X connect 150 0 152 0;
#X connect 151 0 150 0;
#X connect 152 0 154 0;
#X connect 153 0 19 0;
#X connect 154 0 153 1;
#X connect 155 0 244 0;
#X connect 163 0 164 0;
#X connect 164 0 165 0;
#X connect 165 0 168 1;
#X connect 165 0 167 1;
#X connect 166 0 163 0;
#X connect 167 0 177 0;
#X connect 168 0 178 0;
#X connect 171 0 173 1;
#X connect 171 0 174 1;
#X connect 173 0 175 0;
#X connect 174 0 176 0;
#X connect 175 0 177 1;
#X connect 176 0 178 1;
#X connect 177 0 172 0;
#X connect 178 0 172 1;
#X connect 181 0 14 0;
#X connect 182 0 14 0;
#X connect 184 0 188 1;
#X connect 185 0 187 0;
#X connect 186 0 184 0;
#X connect 187 0 191 0;
#X connect 187 1 192 0;
#X connect 188 0 196 0;
#X connect 189 0 185 0;
#X connect 190 0 188 0;
#X connect 191 0 186 0;
#X connect 192 0 186 0;
#X connect 193 0 190 0;
#X connect 194 0 195 0;
#X connect 195 0 193 0;
#X connect 196 0 109 0;
#X connect 198 0 202 1;
#X connect 199 0 201 0;
#X connect 200 0 198 0;
#X connect 201 0 206 0;
#X connect 201 1 207 0;
#X connect 202 0 210 0;
#X connect 203 0 202 0;
#X connect 204 0 203 0;
#X connect 205 0 209 0;
#X connect 206 0 200 0;
#X connect 207 0 200 0;
#X connect 208 0 199 0;
#X connect 209 0 204 0;
#X connect 210 0 109 0;
#X connect 212 0 216 1;
#X connect 213 0 215 0;
#X connect 214 0 212 0;
#X connect 215 0 221 0;
#X connect 215 1 222 0;
#X connect 216 0 224 0;
#X connect 217 0 213 0;
#X connect 218 0 216 0;
#X connect 219 0 218 0;
#X connect 220 0 223 0;
#X connect 221 0 214 0;
#X connect 222 0 214 0;
#X connect 223 0 219 0;
#X connect 224 0 109 0;
#X connect 226 0 230 1;
#X connect 227 0 229 0;
#X connect 228 0 226 0;
#X connect 229 0 234 0;
#X connect 229 1 235 0;
#X connect 230 0 238 0;
#X connect 231 0 230 0;
#X connect 232 0 231 0;
#X connect 233 0 237 0;
#X connect 234 0 228 0;
#X connect 235 0 228 0;
#X connect 236 0 227 0;
#X connect 237 0 232 0;
#X connect 238 0 109 0;
#X connect 241 0 17 0;
#X connect 242 0 17 0;
#X connect 244 0 140 0;
#X connect 244 0 138 0;
#X connect 245 0 149 0;
#X connect 246 0 243 0;
#X connect 247 0 243 0;
#X connect 250 0 22 1;
#X connect 250 0 19 1;
